<svg width="143" height="44" viewBox="0 0 143 44" fill="none" xmlns="http://www.w3.org/2000/svg">
<path d="M26.5914 27.144V33.288H22.9914V39H16.3194V33.288H0.431439V27.144L11.6154 5.4H18.7194L7.58344 27.144H16.3194V19.176H22.9914V27.144H26.5914ZM31.8992 39.624C29.6432 39.624 27.8192 37.8 27.8192 35.544C27.8192 33.288 29.6432 31.464 31.8992 31.464C34.1552 31.464 35.9792 33.288 35.9792 35.544C35.9792 37.8 34.1552 39.624 31.8992 39.624ZM58.5759 16.392C58.5759 18.984 57.8559 21.336 56.5599 23.208H56.6079L46.1439 39H38.5599L46.0479 28.056C39.0879 27.912 34.2399 23.16 34.2399 16.392C34.2399 9.528 39.2319 4.728 46.3839 4.728C53.6319 4.728 58.5759 9.528 58.5759 16.392ZM40.8159 16.392C40.8159 19.8 43.3119 21.864 46.3839 21.864C49.5519 21.864 51.9999 19.8 51.9999 16.392C51.9999 12.984 49.5519 10.968 46.3839 10.968C43.3119 10.968 40.8159 13.032 40.8159 16.392ZM62.1872 43.8H59.4512L78.6512 0.599999H81.3872L62.1872 43.8ZM94.6322 17.64C100.776 17.64 106.104 21.432 106.104 28.632C106.104 35.832 100.44 39.672 94.1042 39.672C88.8722 39.672 84.3122 37.368 82.3922 32.472L88.0562 29.16C88.8722 31.752 90.7442 33.192 94.1042 33.192C97.5602 33.192 99.4802 31.368 99.4802 28.632C99.4802 25.944 97.5602 24.072 94.2962 24.072H84.1202L85.4642 5.4H104.52V11.592H91.6082L91.1762 17.64H94.6322ZM111.184 39.624C108.928 39.624 107.104 37.8 107.104 35.544C107.104 33.288 108.928 31.464 111.184 31.464C113.44 31.464 115.264 33.288 115.264 35.544C115.264 37.8 113.44 39.624 111.184 39.624ZM129.462 39.672C120.918 39.672 116.022 32.568 116.022 22.2C116.022 11.832 120.918 4.728 129.462 4.728C138.054 4.728 142.902 11.832 142.902 22.2C142.902 32.568 138.054 39.672 129.462 39.672ZM129.462 33.192C133.974 33.192 136.326 29.304 136.326 22.2C136.326 15.096 133.974 11.16 129.462 11.16C124.95 11.16 122.646 15.096 122.646 22.2C122.646 29.304 124.95 33.192 129.462 33.192Z" fill="#161C2D"/>
</svg>
