<svg width="82" height="36" viewBox="0 0 82 36" fill="none" xmlns="http://www.w3.org/2000/svg">
<path d="M25.2947 12.392C25.2947 14.984 24.5747 17.336 23.2787 19.208H23.3267L12.8627 35H5.27869L12.7667 24.056C5.80669 23.912 0.958687 19.16 0.958687 12.392C0.958687 5.528 5.95069 0.727998 13.1027 0.727998C20.3507 0.727998 25.2947 5.528 25.2947 12.392ZM7.53469 12.392C7.53469 15.8 10.0307 17.864 13.1027 17.864C16.2707 17.864 18.7187 15.8 18.7187 12.392C18.7187 8.984 16.2707 6.968 13.1027 6.968C10.0307 6.968 7.53469 9.032 7.53469 12.392ZM25.5069 35V30.056L36.9789 18.248C39.1389 15.992 40.8189 13.784 40.8189 11.528C40.8189 8.84 38.9949 7.16 36.4509 7.16C33.8589 7.16 31.9389 8.696 30.8349 11.096L25.2669 7.832C27.4269 3.032 31.7949 0.727998 36.3549 0.727998C42.1149 0.727998 47.4429 4.568 47.4429 11.288C47.4429 15.368 45.0909 18.872 41.9229 22.04L35.3469 28.616H47.9709V35H25.5069ZM57.7142 16.568C53.0582 16.568 49.6022 13.064 49.6022 8.648C49.6022 4.28 53.0582 0.727998 57.7142 0.727998C62.3222 0.727998 65.7782 4.184 65.7782 8.648C65.7782 13.064 62.3702 16.568 57.7142 16.568ZM53.0102 29.912L74.8982 5.576L77.8262 7.208L55.8902 31.592L53.0102 29.912ZM57.6662 11.72C59.4422 11.72 60.6902 10.328 60.6902 8.648C60.6902 6.968 59.4422 5.624 57.6662 5.624C55.9382 5.624 54.6902 6.968 54.6902 8.648C54.6902 10.376 55.9382 11.72 57.6662 11.72ZM73.9382 35.576C69.2822 35.576 65.8742 32.024 65.8742 27.656C65.8742 23.288 69.2822 19.736 73.9382 19.736C78.5942 19.736 82.0022 23.288 82.0022 27.656C82.0022 32.024 78.5942 35.576 73.9382 35.576ZM73.9382 30.728C75.7142 30.728 76.9142 29.288 76.9142 27.656C76.9142 25.928 75.7142 24.584 73.9382 24.584C72.1622 24.584 70.9622 25.928 70.9622 27.656C70.9622 29.384 72.1622 30.728 73.9382 30.728Z" fill="#161C2D"/>
</svg>
