<svg width="176" height="21" viewBox="0 0 176 21" fill="none" xmlns="http://www.w3.org/2000/svg">
<path d="M1.66 20.605C1.45467 20.605 1.28667 20.5396 1.156 20.409C1.02533 20.2596 0.96 20.0916 0.96 19.905V1.70498C0.96 1.49965 1.02533 1.33165 1.156 1.20098C1.28667 1.07031 1.45467 1.00498 1.66 1.00498H10.2C11.8053 1.00498 13.1213 1.22898 14.148 1.67698C15.1747 2.12498 15.9307 2.76898 16.416 3.60898C16.92 4.43031 17.172 5.41031 17.172 6.54898C17.172 7.22098 17.0413 7.81831 16.78 8.34098C16.5373 8.84498 16.2293 9.26498 15.856 9.60098C15.5013 9.93698 15.1653 10.1796 14.848 10.329C15.5573 10.665 16.1827 11.2156 16.724 11.981C17.284 12.7463 17.564 13.6423 17.564 14.669C17.564 15.901 17.284 16.965 16.724 17.861C16.1827 18.7383 15.38 19.4196 14.316 19.905C13.2707 20.3716 11.9827 20.605 10.452 20.605H1.66ZM6 16.965H9.892C10.6947 16.965 11.3013 16.7316 11.712 16.265C12.1227 15.7983 12.328 15.2663 12.328 14.669C12.328 14.0156 12.1133 13.465 11.684 13.017C11.2733 12.569 10.676 12.345 9.892 12.345H6V16.965ZM6 8.78898H9.64C10.4053 8.78898 10.9747 8.59298 11.348 8.20098C11.74 7.79031 11.936 7.28631 11.936 6.68898C11.936 6.09165 11.74 5.60631 11.348 5.23298C10.9747 4.84098 10.4053 4.64498 9.64 4.64498H6V8.78898ZM20.9113 20.605C20.706 20.605 20.538 20.5396 20.4073 20.409C20.2766 20.2596 20.2113 20.0916 20.2113 19.905V6.74498C20.2113 6.55831 20.2766 6.39965 20.4073 6.26898C20.538 6.11965 20.706 6.04498 20.9113 6.04498H24.1313C24.3366 6.04498 24.5046 6.11965 24.6353 6.26898C24.7846 6.39965 24.8593 6.55831 24.8593 6.74498V7.86498C25.3446 7.28631 25.9326 6.83831 26.6233 6.52098C27.3326 6.20365 28.126 6.04498 29.0033 6.04498H30.2353C30.4406 6.04498 30.6086 6.11031 30.7393 6.24098C30.87 6.37165 30.9353 6.53965 30.9353 6.74498V9.62898C30.9353 9.81565 30.87 9.98365 30.7393 10.133C30.6086 10.2636 30.4406 10.329 30.2353 10.329H27.5193C26.754 10.329 26.1566 10.5436 25.7273 10.973C25.3166 11.3836 25.1113 11.9716 25.1113 12.737V19.905C25.1113 20.0916 25.0366 20.2596 24.8873 20.409C24.7566 20.5396 24.5886 20.605 24.3833 20.605H20.9113ZM36.8925 20.885C35.8845 20.885 34.9791 20.6983 34.1765 20.325C33.3925 19.933 32.7671 19.4103 32.3005 18.757C31.8338 18.1036 31.6005 17.3663 31.6005 16.545C31.6005 15.2196 32.1418 14.1743 33.2245 13.409C34.3071 12.625 35.7445 12.093 37.5365 11.813L41.0365 11.281V10.889C41.0365 10.217 40.8965 9.70365 40.6165 9.34898C40.3365 8.99431 39.8231 8.81698 39.0765 8.81698C38.5538 8.81698 38.1245 8.91965 37.7885 9.12498C37.4711 9.33031 37.2191 9.61031 37.0325 9.96498C36.8645 10.2076 36.6311 10.329 36.3325 10.329H33.1965C32.9911 10.329 32.8325 10.273 32.7205 10.161C32.6085 10.0303 32.5618 9.88098 32.5805 9.71298C32.5805 9.37698 32.7018 8.99431 32.9445 8.56498C33.2058 8.11698 33.5978 7.67831 34.1205 7.24898C34.6431 6.81965 35.3151 6.46498 36.1365 6.18498C36.9578 5.90498 37.9565 5.76498 39.1325 5.76498C40.3271 5.76498 41.3538 5.90498 42.2125 6.18498C43.0711 6.46498 43.7711 6.85698 44.3125 7.36098C44.8538 7.86498 45.2458 8.46231 45.4885 9.15298C45.7498 9.82498 45.8805 10.5716 45.8805 11.393V19.905C45.8805 20.0916 45.8058 20.2596 45.6565 20.409C45.5258 20.5396 45.3671 20.605 45.1805 20.605H41.9325C41.7271 20.605 41.5591 20.5396 41.4285 20.409C41.2978 20.2596 41.2325 20.0916 41.2325 19.905V18.925C40.9898 19.2796 40.6631 19.6063 40.2525 19.905C39.8418 20.2036 39.3565 20.437 38.7965 20.605C38.2551 20.7916 37.6205 20.885 36.8925 20.885ZM38.2085 17.693C38.7498 17.693 39.2351 17.581 39.6645 17.357C40.1125 17.1143 40.4578 16.7503 40.7005 16.265C40.9618 15.761 41.0925 15.1356 41.0925 14.389V13.997L38.7125 14.417C37.8351 14.5663 37.1911 14.7996 36.7805 15.117C36.3885 15.4156 36.1925 15.7703 36.1925 16.181C36.1925 16.4983 36.2858 16.769 36.4725 16.993C36.6591 17.217 36.9018 17.3943 37.2005 17.525C37.5178 17.637 37.8538 17.693 38.2085 17.693ZM49.5846 20.605C49.3792 20.605 49.2112 20.5396 49.0806 20.409C48.9499 20.2596 48.8846 20.0916 48.8846 19.905V6.74498C48.8846 6.53965 48.9499 6.37165 49.0806 6.24098C49.2112 6.11031 49.3792 6.04498 49.5846 6.04498H52.8886C53.0939 6.04498 53.2619 6.11031 53.3926 6.24098C53.5232 6.37165 53.5886 6.53965 53.5886 6.74498V19.905C53.5886 20.0916 53.5232 20.2596 53.3926 20.409C53.2619 20.5396 53.0939 20.605 52.8886 20.605H49.5846ZM49.5566 3.94498C49.3512 3.94498 49.1832 3.87965 49.0526 3.74898C48.9219 3.61831 48.8566 3.45031 48.8566 3.24498V0.724979C48.8566 0.538313 48.9219 0.379646 49.0526 0.248979C49.1832 0.0996463 49.3512 0.0249801 49.5566 0.0249801H52.9166C53.1032 0.0249801 53.2619 0.0996463 53.3926 0.248979C53.5419 0.379646 53.6166 0.538313 53.6166 0.724979V3.24498C53.6166 3.45031 53.5419 3.61831 53.3926 3.74898C53.2619 3.87965 53.1032 3.94498 52.9166 3.94498H49.5566ZM57.4407 20.605C57.2354 20.605 57.0674 20.5396 56.9367 20.409C56.806 20.2596 56.7407 20.0916 56.7407 19.905V6.74498C56.7407 6.53965 56.806 6.37165 56.9367 6.24098C57.0674 6.11031 57.2354 6.04498 57.4407 6.04498H60.6607C60.866 6.04498 61.034 6.11031 61.1647 6.24098C61.314 6.37165 61.3887 6.53965 61.3887 6.74498V7.80898C61.8554 7.23031 62.4807 6.74498 63.2647 6.35298C64.0487 5.96098 64.9727 5.76498 66.0367 5.76498C67.1194 5.76498 68.0714 6.00765 68.8927 6.49298C69.7327 6.97831 70.386 7.68765 70.8527 8.62098C71.338 9.55431 71.5807 10.7116 71.5807 12.093V19.905C71.5807 20.0916 71.5154 20.2596 71.3847 20.409C71.254 20.5396 71.086 20.605 70.8807 20.605H67.3527C67.166 20.605 66.998 20.5396 66.8487 20.409C66.718 20.2596 66.6527 20.0916 66.6527 19.905V12.261C66.6527 11.3836 66.438 10.7116 66.0087 10.245C65.598 9.75965 64.982 9.51698 64.1607 9.51698C63.3954 9.51698 62.7794 9.75965 62.3127 10.245C61.8647 10.7116 61.6407 11.3836 61.6407 12.261V19.905C61.6407 20.0916 61.566 20.2596 61.4167 20.409C61.286 20.5396 61.1274 20.605 60.9407 20.605H57.4407ZM78.3913 20.605C78.1113 20.605 77.9059 20.5396 77.7753 20.409C77.6446 20.2596 77.5419 20.0916 77.4673 19.905L73.4353 6.94098C73.3979 6.84765 73.3793 6.75431 73.3793 6.66098C73.3793 6.49298 73.4446 6.35298 73.5753 6.24098C73.7059 6.11031 73.8553 6.04498 74.0233 6.04498H76.9073C77.1499 6.04498 77.3366 6.11031 77.4673 6.24098C77.6166 6.37165 77.7099 6.50231 77.7473 6.63298L80.0993 14.641L82.6193 6.66098C82.6566 6.53031 82.7406 6.39965 82.8713 6.26898C83.0206 6.11965 83.2259 6.04498 83.4873 6.04498H85.3353C85.5966 6.04498 85.8019 6.11965 85.9513 6.26898C86.1006 6.39965 86.1846 6.53031 86.2033 6.66098L88.7233 14.641L91.0753 6.63298C91.1126 6.50231 91.1966 6.37165 91.3273 6.24098C91.4766 6.11031 91.6726 6.04498 91.9153 6.04498H94.7993C94.9673 6.04498 95.1166 6.11031 95.2473 6.24098C95.3779 6.35298 95.4433 6.49298 95.4433 6.66098C95.4433 6.75431 95.4246 6.84765 95.3873 6.94098L91.3553 19.905C91.2993 20.0916 91.1966 20.2596 91.0473 20.409C90.9166 20.5396 90.7113 20.605 90.4313 20.605H87.9113C87.6499 20.605 87.4446 20.5396 87.2953 20.409C87.1459 20.2596 87.0433 20.0916 86.9873 19.905L84.4113 12.233L81.8353 19.905C81.7793 20.0916 81.6766 20.2596 81.5273 20.409C81.3779 20.5396 81.1726 20.605 80.9113 20.605H78.3913ZM101.512 20.885C100.504 20.885 99.5991 20.6983 98.7964 20.325C98.0124 19.933 97.3871 19.4103 96.9204 18.757C96.4538 18.1036 96.2204 17.3663 96.2204 16.545C96.2204 15.2196 96.7618 14.1743 97.8444 13.409C98.9271 12.625 100.364 12.093 102.156 11.813L105.656 11.281V10.889C105.656 10.217 105.516 9.70365 105.236 9.34898C104.956 8.99431 104.443 8.81698 103.696 8.81698C103.174 8.81698 102.744 8.91965 102.408 9.12498C102.091 9.33031 101.839 9.61031 101.652 9.96498C101.484 10.2076 101.251 10.329 100.952 10.329H97.8164C97.6111 10.329 97.4524 10.273 97.3404 10.161C97.2284 10.0303 97.1818 9.88098 97.2004 9.71298C97.2004 9.37698 97.3218 8.99431 97.5644 8.56498C97.8258 8.11698 98.2178 7.67831 98.7404 7.24898C99.2631 6.81965 99.9351 6.46498 100.756 6.18498C101.578 5.90498 102.576 5.76498 103.752 5.76498C104.947 5.76498 105.974 5.90498 106.832 6.18498C107.691 6.46498 108.391 6.85698 108.932 7.36098C109.474 7.86498 109.866 8.46231 110.108 9.15298C110.37 9.82498 110.5 10.5716 110.5 11.393V19.905C110.5 20.0916 110.426 20.2596 110.276 20.409C110.146 20.5396 109.987 20.605 109.8 20.605H106.552C106.347 20.605 106.179 20.5396 106.048 20.409C105.918 20.2596 105.852 20.0916 105.852 19.905V18.925C105.61 19.2796 105.283 19.6063 104.872 19.905C104.462 20.2036 103.976 20.437 103.416 20.605C102.875 20.7916 102.24 20.885 101.512 20.885ZM102.828 17.693C103.37 17.693 103.855 17.581 104.284 17.357C104.732 17.1143 105.078 16.7503 105.32 16.265C105.582 15.761 105.712 15.1356 105.712 14.389V13.997L103.332 14.417C102.455 14.5663 101.811 14.7996 101.4 15.117C101.008 15.4156 100.812 15.7703 100.812 16.181C100.812 16.4983 100.906 16.769 101.092 16.993C101.279 17.217 101.522 17.3943 101.82 17.525C102.138 17.637 102.474 17.693 102.828 17.693ZM118.274 20.605C117.994 20.605 117.789 20.5396 117.658 20.409C117.528 20.2596 117.416 20.0916 117.322 19.905L112.03 6.91298C111.993 6.83831 111.974 6.75431 111.974 6.66098C111.974 6.49298 112.03 6.35298 112.142 6.24098C112.273 6.11031 112.432 6.04498 112.618 6.04498H115.782C116.025 6.04498 116.212 6.11031 116.342 6.24098C116.473 6.37165 116.557 6.50231 116.594 6.63298L119.758 15.229L122.95 6.63298C122.988 6.50231 123.072 6.37165 123.202 6.24098C123.333 6.11031 123.52 6.04498 123.762 6.04498H126.926C127.094 6.04498 127.244 6.11031 127.374 6.24098C127.505 6.35298 127.57 6.49298 127.57 6.66098C127.57 6.75431 127.552 6.83831 127.514 6.91298L122.222 19.905C122.148 20.0916 122.036 20.2596 121.886 20.409C121.756 20.5396 121.541 20.605 121.242 20.605H118.274ZM135.764 20.885C133.562 20.885 131.807 20.2876 130.5 19.093C129.194 17.8983 128.512 16.125 128.456 13.773C128.456 13.6423 128.456 13.4743 128.456 13.269C128.456 13.0636 128.456 12.905 128.456 12.793C128.512 11.3183 128.839 10.0583 129.436 9.01298C130.052 7.94898 130.892 7.14631 131.956 6.60498C133.039 6.04498 134.299 5.76498 135.736 5.76498C137.379 5.76498 138.732 6.09165 139.796 6.74498C140.879 7.39831 141.691 8.28498 142.232 9.40498C142.774 10.525 143.044 11.8036 143.044 13.241V13.913C143.044 14.1183 142.979 14.2863 142.848 14.417C142.718 14.5476 142.55 14.613 142.344 14.613H133.384C133.384 14.6316 133.384 14.6596 133.384 14.697C133.384 14.7343 133.384 14.7716 133.384 14.809C133.403 15.3503 133.496 15.845 133.664 16.293C133.851 16.741 134.112 17.0956 134.448 17.357C134.803 17.6183 135.232 17.749 135.736 17.749C136.11 17.749 136.418 17.693 136.66 17.581C136.922 17.4503 137.136 17.3103 137.304 17.161C137.472 16.993 137.603 16.853 137.696 16.741C137.864 16.5356 137.995 16.4143 138.088 16.377C138.2 16.321 138.368 16.293 138.592 16.293H142.064C142.251 16.293 142.4 16.349 142.512 16.461C142.643 16.573 142.699 16.7223 142.68 16.909C142.662 17.2263 142.503 17.609 142.204 18.057C141.906 18.505 141.467 18.953 140.888 19.401C140.328 19.8303 139.619 20.185 138.76 20.465C137.902 20.745 136.903 20.885 135.764 20.885ZM133.384 11.841H138.116V11.785C138.116 11.169 138.023 10.6463 137.836 10.217C137.668 9.76898 137.398 9.42365 137.024 9.18098C136.67 8.93831 136.24 8.81698 135.736 8.81698C135.251 8.81698 134.831 8.93831 134.476 9.18098C134.122 9.42365 133.851 9.76898 133.664 10.217C133.478 10.6463 133.384 11.169 133.384 11.785V11.841ZM146.074 20.605C145.868 20.605 145.7 20.5396 145.57 20.409C145.439 20.2596 145.374 20.0916 145.374 19.905V16.349C145.374 16.1436 145.439 15.9756 145.57 15.845C145.7 15.7143 145.868 15.649 146.074 15.649H149.63C149.816 15.649 149.975 15.7143 150.106 15.845C150.255 15.9756 150.33 16.1436 150.33 16.349V19.905C150.33 20.0916 150.255 20.2596 150.106 20.409C149.975 20.5396 149.816 20.605 149.63 20.605H146.074ZM154.015 20.605C153.81 20.605 153.642 20.5396 153.511 20.409C153.381 20.2596 153.315 20.0916 153.315 19.905V6.74498C153.315 6.53965 153.381 6.37165 153.511 6.24098C153.642 6.11031 153.81 6.04498 154.015 6.04498H157.319C157.525 6.04498 157.693 6.11031 157.823 6.24098C157.954 6.37165 158.019 6.53965 158.019 6.74498V19.905C158.019 20.0916 157.954 20.2596 157.823 20.409C157.693 20.5396 157.525 20.605 157.319 20.605H154.015ZM153.987 3.94498C153.782 3.94498 153.614 3.87965 153.483 3.74898C153.353 3.61831 153.287 3.45031 153.287 3.24498V0.724979C153.287 0.538313 153.353 0.379646 153.483 0.248979C153.614 0.0996463 153.782 0.0249801 153.987 0.0249801H157.347C157.534 0.0249801 157.693 0.0996463 157.823 0.248979C157.973 0.379646 158.047 0.538313 158.047 0.724979V3.24498C158.047 3.45031 157.973 3.61831 157.823 3.74898C157.693 3.87965 157.534 3.94498 157.347 3.94498H153.987ZM168.059 20.885C166.491 20.885 165.166 20.633 164.083 20.129C163.019 19.625 162.198 18.9063 161.619 17.973C161.059 17.021 160.742 15.8916 160.667 14.585C160.649 14.2116 160.639 13.7916 160.639 13.325C160.639 12.8396 160.649 12.4196 160.667 12.065C160.742 10.7396 161.078 9.61031 161.675 8.67698C162.273 7.74365 163.103 7.02498 164.167 6.52098C165.25 6.01698 166.547 5.76498 168.059 5.76498C169.59 5.76498 170.887 6.01698 171.951 6.52098C173.034 7.02498 173.874 7.74365 174.471 8.67698C175.069 9.61031 175.405 10.7396 175.479 12.065C175.498 12.4196 175.507 12.8396 175.507 13.325C175.507 13.7916 175.498 14.2116 175.479 14.585C175.405 15.8916 175.078 17.021 174.499 17.973C173.939 18.9063 173.118 19.625 172.035 20.129C170.971 20.633 169.646 20.885 168.059 20.885ZM168.059 17.469C168.899 17.469 169.506 17.217 169.879 16.713C170.271 16.209 170.495 15.453 170.551 14.445C170.57 14.165 170.579 13.7916 170.579 13.325C170.579 12.8583 170.57 12.485 170.551 12.205C170.495 11.2156 170.271 10.469 169.879 9.96498C169.506 9.44231 168.899 9.18098 168.059 9.18098C167.257 9.18098 166.65 9.44231 166.239 9.96498C165.847 10.469 165.633 11.2156 165.595 12.205C165.577 12.485 165.567 12.8583 165.567 13.325C165.567 13.7916 165.577 14.165 165.595 14.445C165.633 15.453 165.847 16.209 166.239 16.713C166.65 17.217 167.257 17.469 168.059 17.469Z" fill="white"/>
</svg>
